<svg xmlns="http://www.w3.org/2000/svg" version="1.0" width="1280.000000pt" height="1121.000000pt" viewBox="0 0 1280.000000 1121.000000" preserveAspectRatio="xMidYMid meet">
<metadata>
Created by potrace 1.15, written by Peter Selinger 2001-2017
</metadata>
<g transform="translate(0.000000,1121.000000) scale(0.100000,-0.100000)" fill="#000000" stroke="none">
<path d="M9515 11199 c-612 -58 -1231 -283 -1800 -657 -284 -186 -481 -347 -725 -591 -288 -289 -504 -582 -660 -893 -45 -90 -84 -162 -87 -161 -3 1 -22 39 -42 85 -88 197 -264 479 -426 681 -619 771 -1521 1330 -2405 1491 -399 72 -787 61 -1150 -35 -212 -55 -491 -182 -678 -307 -609 -406 -1060 -1104 -1342 -2077 -87 -300 -146 -569 -176 -810 -25 -195 -25 -614 -1 -815 92 -748 373 -1458 883 -2233 372 -565 793 -1068 1413 -1687 907 -907 1841 -1666 3698 -3008 329 -238 283 -235 551 -34 228 172 444 328 991 721 1459 1048 2102 1548 2776 2161 951 864 1612 1686 2006 2495 240 493 373 934 436 1443 21 172 24 643 5 807 -92 770 -389 1614 -768 2183 -171 255 -390 501 -599 673 -201 166 -498 336 -738 424 -342 125 -782 179 -1162 144z"/>
</g>
</svg>